<svg width="308" height="308" viewBox="0 0 308 308" fill="none" xmlns="http://www.w3.org/2000/svg">
<path d="M116.539 137.049C113.408 144.171 112.303 152.4 113.759 160.637C117.675 182.806 138.818 197.604 160.985 193.693C183.154 189.78 197.949 168.638 194.033 146.472C190.117 124.303 168.973 109.503 146.806 113.416" stroke="#F48580" stroke-width="16.7477" stroke-miterlimit="3.8637" stroke-linecap="round"/>
<path d="M79.8088 167.812C78.1186 159.029 77.9492 149.927 79.5984 140.593C86.8385 99.5957 125.942 72.2264 166.938 79.4613C207.934 86.6963 235.298 125.795 228.056 166.792C220.814 207.79 181.712 235.159 140.715 227.924C129.398 225.928 119.12 221.502 110.321 215.278" stroke="#004A7C" stroke-width="16.7477" stroke-miterlimit="3.8637" stroke-linecap="round"/>
<path d="M127.272 46.4124C141.815 42.8026 157.312 42.2449 173.024 45.0181C211.385 51.7877 241.593 77.6156 255.63 111.045" stroke="#FFCD67" stroke-width="16.7477" stroke-miterlimit="3.8637" stroke-linecap="round"/>
<path d="M298.936 151.83C299.059 160.841 298.388 169.992 296.763 179.194C282.835 258.043 207.629 310.683 128.783 296.77" stroke="#9B95C9" stroke-width="16.7477" stroke-miterlimit="3.8637" stroke-linecap="round"/>
<path d="M71.2794 273.031C26.2632 241.771 1.07854 186.326 11.239 128.806C25.1666 49.9569 100.371 -2.6826 179.219 11.2296C216.341 17.7802 247.651 37.9163 268.94 65.6209" stroke="#D058A0" stroke-width="16.7477" stroke-miterlimit="3.8637" stroke-linecap="round"/>
<path d="M262.777 174.043C253.175 225.247 208.196 263.993 154.205 263.993C93.2152 263.993 43.7749 214.553 43.7749 153.563C43.7749 119.024 59.6323 88.1866 84.4628 67.9376" stroke="#60C3AD" stroke-width="16.7477" stroke-miterlimit="3.8637" stroke-linecap="round"/>
</svg>
